<svg xmlns="http://www.w3.org/2000/svg" viewBox="0 0 64 64" id="naypyidaw"><path fill="#f9d161" d="M34,14l.283-.565A6.807,6.807,0,0,0,35,10.4h0a6.8,6.8,0,0,0-.55-2.679L32,2,29.55,7.717A6.8,6.8,0,0,0,29,10.4h0a6.807,6.807,0,0,0,.717,3.039L30,14"></path><path fill="#fbe47f" d="M35,10.4a6.8,6.8,0,0,0-.55-2.679L33,4.333,31.55,7.717a6.8,6.8,0,0,0,.167,5.718L32,14h2l.283-.565A6.807,6.807,0,0,0,35,10.4Z"></path><path fill="#f9d161" d="M41,36l-1.515-6.06A2.562,2.562,0,0,0,37,28H27a2.562,2.562,0,0,0-2.485,1.94L23,36"></path><path fill="#fbe47f" d="M37,28H29a2.562,2.562,0,0,0-2.485,1.94L25,36H41l-1.515-6.06A2.562,2.562,0,0,0,37,28Z"></path><path fill="#f5b94c" d="M59,58l-8.647-7.412a17.583,17.583,0,0,1-6.054-11.6h0A3.315,3.315,0,0,0,41,36H23a3.315,3.315,0,0,0-3.3,2.985h0a17.583,17.583,0,0,1-6.054,11.6L5,58Z"></path><path fill="#f9d161" d="M44.3,38.985A3.315,3.315,0,0,0,41,36H25a3.315,3.315,0,0,0-3.3,2.985,17.583,17.583,0,0,1-6.054,11.6L7,58H59l-8.647-7.412A17.583,17.583,0,0,1,44.3,38.985Z"></path><rect width="60" height="4" x="2" y="58" fill="#77787c"></rect><rect width="60" height="2" x="2" y="58" fill="#9a9b9f"></rect><path fill="#f5b94c" d="M37,28V24.831A21.051,21.051,0,0,0,34,14H30a21.051,21.051,0,0,0-3,10.831V28"></path><path fill="#f9d161" d="M34,14H32a21.051,21.051,0,0,0-3,10.831V28h8V24.831A21.051,21.051,0,0,0,34,14Z"></path><path fill="#c2c3c5" d="M37,62V55a5,5,0,0,0-5-5h0a5,5,0,0,0-5,5v7"></path><path fill="#dcdddf" d="M31.5,50.05A4.984,4.984,0,0,0,27,55v7h9V55A4.984,4.984,0,0,0,31.5,50.05Z"></path><path fill="#d89535" d="M16.817,47H47.183a17.62,17.62,0,0,1-1.148-2H17.965A17.62,17.62,0,0,1,16.817,47Z"></path><polygon fill="#f5b94c" points="24.25 31 23.75 33 40.25 33 39.75 31 24.25 31"></polygon></svg>